<svg id="Layer_1" data-name="Layer 1" xmlns="http://www.w3.org/2000/svg" viewBox="0 0 60 53"><defs><style>.cls-1{fill:#3d8e81;}</style></defs><path d="M29.89,15H21.41a.84.84,0,0,1-.91-.57.85.85,0,0,1,.79-1.16c.78,0,1.56,0,2.34,0h6.26V11.76c0-.45,0-.91,0-1.36a.75.75,0,1,1,1.5,0c0,.73,0,1.46,0,2.2,0,.18,0,.37,0,.62h8.32a2,2,0,0,1,.55.06.78.78,0,0,1,.55.86.8.8,0,0,1-.63.8,2.43,2.43,0,0,1-.47,0c-2.61,0-5.22,0-7.83,0-.41,0-.56.12-.53.58a10.29,10.29,0,0,1,0,1.36c0,.42.13.54.49.54,1.46,0,2.93,0,4.4,0,.76,0,1,.24,1,1.09v3.82c0,.84-.21,1.07-1,1.07h0c-1.32,0-1.26,0-1.34,1.5a2.15,2.15,0,0,0,1,2.2,7.22,7.22,0,0,1,2.22,2.65.72.72,0,0,0,.67.44c1.27,0,2.54,0,3.8,0,.39,0,.55-.14.51-.57a2.81,2.81,0,0,1,0-.58c0-.6.33-.93.87-.94h3.28c.57,0,.82.3.83.94V40.89c0,.67-.26.94-.87.94-1.05,0-2.09,0-3.14,0-.68,0-1-.32-1-1.08,0-1,0-1-.91-1-1.1,0-2.19,0-3.29,0a.82.82,0,0,0-.79.49,8.33,8.33,0,0,1-6.29,4.49c-3.57.44-6.47-1-8.51-4.36a1,1,0,0,0-1-.62c-1.18,0-2.35,0-3.52,0-.4,0-.58.12-.54.59a2.58,2.58,0,0,1,0,.68c-.09.57-.34.81-.87.81-1.06,0-2.13,0-3.19,0-.66,0-.9-.26-.9-1q0-3.24,0-6.48c0-1.71,0-3.42,0-5.13,0-.83.23-1.08,1-1.08h2.95c.74,0,1,.31,1.06,1.12,0,1,0,1,.89,1,1.13,0,2.25,0,3.38,0a.69.69,0,0,0,.68-.42,9.14,9.14,0,0,1,2.86-3.18A.68.68,0,0,0,26.4,26c0-.66,0-1.33,0-2,0-.42-.15-.55-.5-.54s-.72,0-1.08,0c-.52,0-.76-.29-.77-.88V18.36c0-.64.25-.91.84-.91,1.49,0,3,0,4.46,0,.44,0,.57-.16.55-.63S29.89,15.65,29.89,15Zm.79,26.34c3.24.05,5.83-3.11,5.68-6.66-.14-3.13-2.58-6.16-5.92-6-2.74.1-5.6,2.77-5.47,6.69C25.09,38.58,27.62,41.34,30.68,41.33Z"/><path class="cls-1" d="M11.49,39.81c-.57-.09-.79-.31-.79-.86q0-4,0-7.94a.71.71,0,0,1,.79-.82Z"/><path class="cls-1" d="M49.83,39.81V30.23c.5-.07.79.2.8.78s0,1.46,0,2.19v5.64C50.63,39.48,50.44,39.72,49.83,39.81Z"/><path class="cls-1" d="M30.69,39.46a4.28,4.28,0,0,1-4-4.43,4.29,4.29,0,0,1,4-4.5,4.28,4.28,0,0,1,4,4.46A4.29,4.29,0,0,1,30.69,39.46Z"/></svg>