<svg id="Layer_1" data-name="Layer 1" xmlns="http://www.w3.org/2000/svg" viewBox="0 0 60 53"><defs><style>.cls-1{fill:#3d8e81;}</style></defs><path d="M39.33,9.59a1.41,1.41,0,0,1,1.07,1.23h.68a1.92,1.92,0,0,1,2.07,1.87c0,2.08,0,4.15,0,6.22v.41a10.09,10.09,0,0,1,5.12,1.79H36.65a10,10,0,0,1,5.09-1.78c0-.13,0-.26,0-.39V13c0-.84-.17-1-1.11-1h-.22a2.58,2.58,0,0,0-.08.26,1.31,1.31,0,0,1-1.32.94H34.85c-.73,0-1.13-.35-1.41-1.2-.23,0-.48,0-.71,0s-.59.24-.61.58c0,.11,0,.22,0,.34V36.61c0,.76.17.91,1.06.91h2.38V24.8H49.32V41.14H35.57V38.79c-1.39-.24-2.88.32-4.17-.51a2.76,2.76,0,0,1-1.81.46c-.76,0-1.51,0-2.3,0v2.4H13.49V24.79H27.26v12.7l.33,0H29.9c.58,0,.82-.22.83-.74V13.09c0-1-.21-1.14-1.35-1.05l-.06.21a1.32,1.32,0,0,1-1.33,1H23.81c-.74,0-1.18-.39-1.41-1.21-.21,0-.44,0-.67,0a.62.62,0,0,0-.66.57c0,.4,0,.8,0,1.21l.19,0a1.25,1.25,0,0,1,1.18,1.25c0,1.37,0,2.73,0,4.09,0,.24.07.34.35.4a9.33,9.33,0,0,1,3,1.22l.43.29H14.65L14.6,21a12.56,12.56,0,0,1,1.3-.71c.69-.29,1.42-.5,2.13-.76.1,0,.25-.15.26-.22,0-.61,0-1.21,0-1.86h-2c-.19,0-.37,0-.55,0a1.47,1.47,0,0,0-1.41.53,2.15,2.15,0,0,1-3.47-.45c0-.1-.1-.18-.15-.27v-.83c0-.1.1-.2.16-.3a2,2,0,0,1,1.75-1.1,2.09,2.09,0,0,1,1.87.8c.35.44.4.47,1.06.35,0-.3,0-.61,0-.91a.44.44,0,0,0-.32-.5,1.7,1.7,0,0,1-1-2.18,2.07,2.07,0,0,1,2-1.22,2,2,0,0,1,2,1.42,1.75,1.75,0,0,1-1,2c-.12.06-.31.14-.31.21,0,.41,0,.82,0,1.22H18.3V15.11a1.08,1.08,0,0,1,.5-1,6.24,6.24,0,0,1,.89-.39c0-.36,0-.78,0-1.19a1.92,1.92,0,0,1,2-1.74h.77a1.38,1.38,0,0,1,1.1-1.23H28.3c.54.23,1,.53,1,1.1,0,.05.15.12.23.12a2.61,2.61,0,0,1,1.85.47,2.86,2.86,0,0,1,2-.46,1.43,1.43,0,0,1,1.1-1.23Zm3.13,30.35c1.31,0,2.63,0,3.94,0,1.06,0,1.59-.47,1.59-1.4V33.46c0-.93-.53-1.4-1.59-1.4H38.51c-1,0-1.57.46-1.57,1.4,0,1.69,0,3.39,0,5.08,0,.94.52,1.4,1.57,1.4C39.83,40,41.14,39.94,42.46,39.94Zm-22.1,0c1.34,0,2.69,0,4,0,1,0,1.5-.48,1.5-1.32V33.4c0-.87-.54-1.34-1.53-1.34h-8c-1,0-1.55.47-1.55,1.36v5.15c0,.9.53,1.37,1.57,1.37C17.73,40,19.05,39.94,20.36,39.94ZM45.21,28.42a2.77,2.77,0,0,0-5.5,0,2.77,2.77,0,0,0,5.5,0ZM20.36,30.84a2.61,2.61,0,0,0,2.77-2.41A2.61,2.61,0,0,0,20.39,26a2.64,2.64,0,0,0-2.78,2.42A2.61,2.61,0,0,0,20.36,30.84Zm-.65-15.76V19.3H21V15.08ZM23.85,12H28V10.84h-4.1Zm11,0H39V10.84h-4.1ZM16.22,13.84a.61.61,0,1,0,0-1.21.65.65,0,0,0-.71.59A.64.64,0,0,0,16.22,13.84Zm-3.46,3.65a.66.66,0,0,0,.7-.6.65.65,0,0,0-.64-.62.62.62,0,1,0-.06,1.22Z"/><path class="cls-1" d="M42.46,23.56h-7.7a.62.62,0,0,1-.58-.6.61.61,0,0,1,.55-.59,3.1,3.1,0,0,1,.43,0h14.6a2.48,2.48,0,0,1,.39,0,.62.62,0,0,1,.59.59.64.64,0,0,1-.63.6H42.46Z"/><path class="cls-1" d="M20.36,23.56H12.93c-.51,0-.8-.2-.83-.56a.59.59,0,0,1,.53-.63,2.42,2.42,0,0,1,.47,0H27.64c.68,0,1,.2,1,.61s-.33.61-1,.61Z"/><path class="cls-1" d="M46.6,42.39h1.34c0,.67,0,1.32,0,2,0,.31-.34.45-.69.44a.62.62,0,0,1-.63-.59C46.59,43.62,46.6,43,46.6,42.39Z"/><path class="cls-1" d="M14.86,42.4h1.35c0,.64,0,1.27,0,1.9a.6.6,0,0,1-.67.5.64.64,0,0,1-.67-.56C14.84,43.63,14.86,43,14.86,42.4Z"/><path class="cls-1" d="M38.31,42.41c0,.63,0,1.26,0,1.88a.64.64,0,0,1-.68.51.63.63,0,0,1-.67-.55c0-.61,0-1.21,0-1.84Z"/><path class="cls-1" d="M24.53,42.39h1.33c0,.66,0,1.32,0,2,0,.27-.39.47-.7.44s-.6-.21-.61-.53C24.51,43.66,24.53,43,24.53,42.39Z"/><path class="cls-1" d="M38.33,36.1V33.29h8.24v2.58c-.29-.2-.54-.36-.78-.54a.74.74,0,0,0-1.27.33.85.85,0,0,1-.48.4,3.69,3.69,0,0,1-3.65-.62c-.09-.07-.17-.15-.26-.21a.7.7,0,0,0-1.09.32C39,35.92,38.7,36,38.33,36.1Z"/><path class="cls-1" d="M38.34,37.46,40,36.74c2,1,3.89,1,5.45,0,.33.16.66.31,1,.49a.26.26,0,0,1,.14.2c0,.44,0,.87,0,1.33H38.34Z"/><path class="cls-1" d="M24.5,35.88l-.86-.59c-.49-.35-1.06-.21-1.18.33-.07.28-.28.37-.53.45a3.7,3.7,0,0,1-3.59-.61l-.26-.2a.7.7,0,0,0-1.13.31c-.08.35-.33.46-.69.52V33.28H24.5Z"/><path class="cls-1" d="M23.38,36.7c.33.16.65.31,1,.48a.34.34,0,0,1,.17.19c0,.45,0,.89,0,1.35H16.26V37.46l1.68-.72a4.71,4.71,0,0,0,2.7.77A4.56,4.56,0,0,0,23.38,36.7Z"/><path d="M42.45,27.2a1.22,1.22,0,1,1,0,2.42,1.22,1.22,0,1,1,0-2.42Z"/><path d="M20.36,27.2a1.29,1.29,0,0,1,1.38,1.19,1.27,1.27,0,0,1-1.36,1.23,1.22,1.22,0,1,1,0-2.42Z"/></svg>