<svg id="Layer_1" data-name="Layer 1" xmlns="http://www.w3.org/2000/svg" viewBox="0 0 60 53"><defs><style>.cls-1{fill:#3d8e81;}</style></defs><path d="M46.3,42V44.8H41.88V42H19.48v2.8H15V42H12.94a3.13,3.13,0,0,1-.81-.06,2.13,2.13,0,0,1-1.43-2.21q0-4,0-8,0-9.85,0-19.73a2.13,2.13,0,0,1,1.45-2.28,1.94,1.94,0,0,1,.54-.05H33.55c5,0,10,0,14.93,0A2.23,2.23,0,0,1,50.64,12q0,13.79,0,27.58a2.15,2.15,0,0,1-1.43,2.3,2.55,2.55,0,0,1-.73.07ZM24.91,12.63a15.13,15.13,0,0,0-2,.24,11.89,11.89,0,0,0-7.4,4.94,13.46,13.46,0,0,0-2.27,10.52,12.64,12.64,0,0,0,4.21,7.54A11.26,11.26,0,0,0,28.1,38.45a11.77,11.77,0,0,0,7.15-5.38,13.51,13.51,0,0,0,2-9,13.06,13.06,0,0,0-2.65-6.63A11.92,11.92,0,0,0,24.91,12.63ZM48.14,26.46H40.29V38.87h7.85Zm-3.9-6.14h-4a.76.76,0,0,0-.74.74.88.88,0,0,0,.57,1,1.69,1.69,0,0,0,.5.08q3.68,0,7.37,0a1.69,1.69,0,0,0,.45-.07.88.88,0,0,0,.56-1.14.78.78,0,0,0-.8-.62Zm0-8.63H40.42a.85.85,0,0,0-.94.89.87.87,0,0,0,.91.94H48a.92.92,0,1,0,0-1.84C46.76,11.71,45.5,11.69,44.24,11.69Zm0,5.77c-1.28,0-2.57,0-3.85,0a.84.84,0,0,0-.91.88.86.86,0,0,0,.9.94H48a.92.92,0,0,0,1-.94.9.9,0,0,0-1-.88C46.76,17.45,45.5,17.46,44.24,17.46Zm0-2.9h0c-1.32,0-2.64,0-4,0a.78.78,0,0,0-.79.73.91.91,0,0,0,.47,1,1.59,1.59,0,0,0,.57.1h7.36a1.77,1.77,0,0,0,.46-.07.68.68,0,0,0,.58-.7,1.35,1.35,0,0,0-.26-.83,1,1,0,0,0-.72-.22C46.72,14.54,45.49,14.56,44.25,14.56Z"/><path class="cls-1" d="M27.54,29.47c.27,1.54.57,3,.76,4.48a1.66,1.66,0,0,1-1.06,1.73,5.51,5.51,0,0,1-5.6-.15,1.51,1.51,0,0,1-.48-.43c-.5-.69-.57-1.16,0-1.8s1.37-1.4,2.05-2.12a3.23,3.23,0,0,0,.47-.63.61.61,0,0,1,.73-.37A4.4,4.4,0,0,0,27.54,29.47Z"/><path class="cls-1" d="M21.82,28.38c-1.33.32-2.58.65-3.85.91-.81.17-1.32-.4-1.64-1.12a7.29,7.29,0,0,1,.13-6.44,1.91,1.91,0,0,1,.56-.64.83.83,0,0,1,1.34.2,15.8,15.8,0,0,0,2.74,3.07.47.47,0,0,1,.11.33A5.86,5.86,0,0,0,21.82,28.38Z"/><path class="cls-1" d="M28.58,23.11c1.26-.28,2.52-.59,3.79-.85.86-.17,1.36.45,1.67,1.19a7.29,7.29,0,0,1-.18,6.35,2.18,2.18,0,0,1-.46.58A.87.87,0,0,1,32,30.21a16.55,16.55,0,0,0-2.69-3,.45.45,0,0,1-.14-.35,5.07,5.07,0,0,0-.54-3.53A1.07,1.07,0,0,1,28.58,23.11Z"/><path class="cls-1" d="M22.78,22c-.26-1.44-.54-2.84-.76-4.26a1.74,1.74,0,0,1,1.09-1.9,5.44,5.44,0,0,1,5.56.16,2.64,2.64,0,0,1,.79,1,1,1,0,0,1-.33,1.25c-.38.37-.79.71-1.15,1.11-.53.59-1,1.24-1.53,1.85-.08.09-.22.2-.31.17A3.4,3.4,0,0,0,23,22S22.91,22,22.78,22Z"/><path d="M25.13,28.53a2.65,2.65,0,0,1-2.47-2.8A2.68,2.68,0,0,1,25.17,23a2.7,2.7,0,0,1,2.48,2.8A2.62,2.62,0,0,1,25.13,28.53Z"/></svg>