<svg id="Layer_1" data-name="Layer 1" xmlns="http://www.w3.org/2000/svg" viewBox="0 0 60 53"><defs><style>.cls-1{fill:#3d8e81;}</style></defs><path d="M49,33.05V34.3a4.07,4.07,0,0,1-3.84,2.8v2.24h2.6v3.41H38.65V39.32h2.54v-2.2H30.93v2.21H33.5v3.42h-9V39.33H27V37.07H20.18a1.87,1.87,0,0,0-2,2.26h2.4v3.42H11.66V39.33h2.66c-.21-.55-.23-1.09-.56-1.36a2.1,2.1,0,0,1-.88-1.7c0-1.9,0-3.8,0-5.71,0-.25,0-.58-.15-.73-1.22-1.09-2.48-2.14-3.73-3.2V12.08c.67-1.68,2-2.39,4-2.24.78.05,1.57,0,2.43,0a2.12,2.12,0,0,1,1.37-2.3H26.93a2.14,2.14,0,0,1,1.43,2.28c-.05.75,0,1.49,0,2.23l1.27.06v2.3h2.5v3.34H29.58V20l-1.2,0-.06,1h-1.2l-.1-1L25.74,20V17.78H23.19v.89c0,2.34,0,4.69,0,7a1.56,1.56,0,0,1-.66,1.36c-.94.79-1.85,1.61-2.76,2.43-.2.19-.36.42-.6.7h5.26c0-1.08-.07-2.12,0-3.15a2.41,2.41,0,0,1,.67-1.53,1.84,1.84,0,0,0,.52-2.05l-1.19-.09v-1h6.34v1l-1.15.12a1.92,1.92,0,0,0,.64,2.11,1.93,1.93,0,0,1,.54,1.32c.08,1.09,0,2.18,0,3.26h1.35c0-1.15,0-2.25,0-3.33a1.85,1.85,0,0,1,.54-1.26,1.89,1.89,0,0,0,.64-2.12l-1.16-.1v-1H38.6v1l-1.16.08c-.2,1.26-.15,1.23.59,2.09A2.77,2.77,0,0,1,38.62,27c.09,1.05,0,2.12,0,3.17h1.26c0-1.07-.07-2.11,0-3.14a2.37,2.37,0,0,1,.65-1.54,1.85,1.85,0,0,0,.58-2.06L40,23.37v-1h6.33v1l-1.18.13a1.94,1.94,0,0,0,.65,2.09,1.86,1.86,0,0,1,.55,1.25c.08,1,0,2,0,3,0,.23.1.58.28.66A4.11,4.11,0,0,1,49,33.05ZM21.78,25.63a.69.69,0,0,0,.06-.21c0-4.23,0-8.45,0-12.67,0-1.15-.76-1.75-2.09-1.75-2.37,0-4.73,0-7.1,0-1.68,0-2.34.59-2.34,2.11V24.83c0,.25,0,.51,0,.8ZM19.36,35.94H29.2c5.06,0,10.12,0,15.18,0a5.56,5.56,0,0,0,1.73-.23,2.14,2.14,0,0,0,1.51-2.4,2.6,2.6,0,0,0-2.84-1.91H20.11c-.25,0-.5,0-.75.06ZM27.07,12c0-.85,0-1.68,0-2.5,0-.64-.32-.89-1-.89H17.71c-.87,0-1.06.26-.88,1.19h2.89c2.16,0,3.45,1.15,3.47,3.08,0,.46,0,.92,0,1.41h2.56V12.12ZM14.19,30.29c0,1.53,0,3,0,4.37,0,2.68-.57,2.36,2.83,2.38h.09c.57,0,.87-.25.87-.77,0-1.82,0-3.64,0-5.45,0-.18-.29-.5-.45-.5C16.44,30.27,15.36,30.29,14.19,30.29Zm-2.54-3.35c1.34,2.68,4,2.35,6.4,2.07,1-.12,1.79-1.23,2.68-1.89l-.17-.18ZM41.27,28v2.14H45V28Zm-7.69,0v2.11h3.73V28.05Zm-4,2.15V28.06H25.8V30.2Zm-6.3-13.64h7.61v-1H23.23ZM13,41.55h6.23v-1H13Zm27,0c2,0,3.93,0,5.84,0,.17,0,.48-.33.46-.47s-.29-.54-.47-.55c-.73-.07-1.48,0-2.21,0H40Zm-11,0c.83,0,1.65,0,2.48,0,.46,0,.82-.12.68-.56a.9.9,0,0,0-.64-.5c-1.66,0-3.32,0-5,0-.46,0-.72.11-.72.57s.36.52.77.51Zm.51-14.83.25-.14a2.63,2.63,0,0,1-1.4-3.07H27a2.59,2.59,0,0,1-1.37,3.08l.22.13Zm3.94-.16.21.14h3.61l.22-.15A2.63,2.63,0,0,1,36,23.48l-1.29.06A2.53,2.53,0,0,1,33.41,26.6Zm10.41-3.05H42.44c.57,1.35-.21,2.26-1.37,3.19H45l.19-.13A2.54,2.54,0,0,1,43.82,23.55ZM28.43,37.13v2.13h1.1V37.13Zm14.16,0v2.12h1.13V37.14Zm-25.9,1.13H15.51v1h1.18ZM27,13.28a2.71,2.71,0,0,0,.35,1,1,1,0,0,0,.79,0,2.38,2.38,0,0,0,.17-.93Zm.17,4.54v1h1.07v-1Z"/><path class="cls-1" d="M14.11,13.19v-1.1H11.6c0,.31,0,.59,0,.88v5c0,1.06.07,1.1,1.37.84V13.29Zm-2.49,6.87v1.07h1.25V20.06Z"/><path d="M19.36,35.94V31.45c.25,0,.5-.06.75-.06H44.78a2.6,2.6,0,0,1,2.84,1.91,2.14,2.14,0,0,1-1.51,2.4,5.56,5.56,0,0,1-1.73.23c-5.06,0-10.12,0-15.18,0H19.36Zm27-2.29a1.82,1.82,0,0,0-1.88-1.71,1.74,1.74,0,1,0-.07,3.45A1.83,1.83,0,0,0,46.35,33.65Zm-5.15,0a1.93,1.93,0,1,0-2,1.73A1.83,1.83,0,0,0,41.2,33.66Zm-10.31,0a1.93,1.93,0,1,0-1.9,1.7A1.83,1.83,0,0,0,30.89,33.69Zm5.16,0a1.82,1.82,0,0,0-1.87-1.73,1.74,1.74,0,1,0,1.87,1.73Zm-10.31,0a1.93,1.93,0,1,0-1.89,1.72A1.84,1.84,0,0,0,25.74,33.67Z"/><path class="cls-1" d="M14.19,30.29c1.17,0,2.25,0,3.33,0,.16,0,.44.32.45.5,0,1.81,0,3.63,0,5.45,0,.52-.3.76-.87.77H17c-3.4,0-2.79.3-2.83-2.38C14.18,33.24,14.19,31.82,14.19,30.29Z"/><path class="cls-1" d="M23.23,16.56v-1h7.61v1Z"/><path class="cls-1" d="M13,41.55v-1h6.23v1Z"/><path class="cls-1" d="M40,41.59V40.51h3.62c.73,0,1.48,0,2.21,0,.18,0,.44.34.47.55s-.29.46-.46.47C43.93,41.6,42,41.59,40,41.59Z"/><path class="cls-1" d="M29,41.59h-2.4c-.41,0-.76,0-.77-.51s.26-.57.72-.57c1.65,0,3.31,0,5,0a.9.9,0,0,1,.64.5c.14.44-.22.57-.68.56C30.61,41.58,29.79,41.59,29,41.59Z"/><path class="cls-1" d="M29.47,26.76H25.89l-.22-.13A2.59,2.59,0,0,0,27,23.55h1.28a2.63,2.63,0,0,0,1.4,3.07Z"/><path class="cls-1" d="M33.41,26.6a2.53,2.53,0,0,0,1.32-3.06L36,23.48a2.63,2.63,0,0,0,1.43,3.11l-.22.15H33.62Z"/><path class="cls-1" d="M43.82,23.55a2.54,2.54,0,0,0,1.34,3.06l-.19.13h-3.9c1.16-.93,1.94-1.84,1.37-3.19Z"/><path class="cls-1" d="M14.11,13.19l-1.19.1v5.52c-1.3.26-1.37.22-1.37-.84V13c0-.29,0-.57,0-.88h2.51Z"/><path class="cls-1" d="M11.62,20.06h1.25v1.07H11.62Z"/><path class="cls-1" d="M46.35,33.65a1.83,1.83,0,0,1-2,1.74,1.74,1.74,0,1,1,.07-3.45A1.82,1.82,0,0,1,46.35,33.65Zm-1.1.05c-.39-.24-.62-.49-.81-.47s-.38.3-.57.46c.17.15.34.4.52.41S44.84,33.91,45.25,33.7Z"/><path class="cls-1" d="M41.2,33.66a1.93,1.93,0,1,1-2-1.72A1.84,1.84,0,0,1,41.2,33.66Zm-1.1,0c-.4-.24-.61-.46-.82-.46s-.37.24-.56.38c.17.17.32.45.53.49S39.68,33.9,40.1,33.69Z"/><path class="cls-1" d="M30.89,33.69A1.93,1.93,0,1,1,29,31.94,1.83,1.83,0,0,1,30.89,33.69ZM29,33c-.27.32-.53.51-.53.69a.64.64,0,0,0,.48.42.79.79,0,0,0,.57-.43C29.53,33.52,29.24,33.31,29,33Z"/><path class="cls-1" d="M36.05,33.67a1.93,1.93,0,1,1-1.87-1.73A1.82,1.82,0,0,1,36.05,33.67Zm-2-.67c-.23.32-.51.54-.47.69a.72.72,0,0,0,.56.41.68.68,0,0,0,.49-.47C34.66,33.47,34.35,33.29,34.07,33Z"/><path class="cls-1" d="M25.74,33.67a1.93,1.93,0,1,1-1.95-1.73A1.84,1.84,0,0,1,25.74,33.67Zm-1.12-.07c-.4-.19-.64-.4-.84-.37s-.34.31-.51.48c.2.14.4.39.6.39S24.27,33.85,24.62,33.6Z"/><path d="M45.25,33.7c-.41.21-.64.42-.86.4s-.35-.26-.52-.41c.19-.16.36-.43.57-.46S44.86,33.46,45.25,33.7Z"/><path d="M40.1,33.69c-.42.21-.67.44-.85.41s-.36-.32-.53-.49c.19-.14.38-.39.56-.38S39.7,33.45,40.1,33.69Z"/><path d="M29,33c.26.32.55.53.52.68a.79.79,0,0,1-.57.43.64.64,0,0,1-.48-.42C28.45,33.5,28.71,33.31,29,33Z"/><path d="M34.07,33c.28.29.59.47.58.63a.68.68,0,0,1-.49.47.72.72,0,0,1-.56-.41C33.56,33.54,33.84,33.32,34.07,33Z"/><path d="M24.62,33.6c-.35.25-.55.5-.75.5s-.4-.25-.6-.39c.17-.17.31-.44.51-.48S24.22,33.41,24.62,33.6Z"/></svg>