<svg id="Layer_1" data-name="Layer 1" xmlns="http://www.w3.org/2000/svg" viewBox="0 0 60 53"><defs><style>.cls-1,.cls-2,.cls-3{fill:#3d8e81;stroke:#3d8e81;stroke-miterlimit:10;}.cls-1{stroke-width:0.25px;}.cls-2{stroke-width:0.5px;}.cls-3{stroke-width:0.75px;}</style></defs><path d="M36.9,21.55l-5.31,4.7v.07c.57.51.61.43,0,1l-1.27,1.12a.36.36,0,0,1-.51,0s0,0,0,0c-1.63-1.46-3.27-2.9-4.91-4.35-.19-.16-.21-.29,0-.46q.81-.69,1.59-1.41c.19-.16.36-.19.53,0a2.91,2.91,0,0,1,.27.37h.23a2,2,0,0,1,.29-.41l8-7.11c.44-.38.44-.39.89,0,.14.14.26.29.37.4l2.2-1.94-.66-.47c-.21-.15-.2-.3,0-.46l1.68-1.49a.32.32,0,0,1,.45,0s0,0,0,0l3.68,3.26c.17.15.17.28,0,.44l-1.68,1.48a.33.33,0,0,1-.47,0l0,0-.6-.55-2.17,1.89.64.48c.22.17.23.34,0,.51l-.63.48L42,21a18.57,18.57,0,0,1,3.35,2.91,10.56,10.56,0,0,1,2.53,6.83V35.6a1.77,1.77,0,0,1-2,1.8h-2.5c-.27,0-.36.08-.36.32,0,.92-.09.71.79.74a11.62,11.62,0,0,1,1.86.12,3.67,3.67,0,0,1,3.15,3.52v.68h1.44a1.25,1.25,0,0,1,.4.2c-.13,0-.26.12-.4.16a.71.71,0,0,1-.29,0H10.89c-.08,0-.19-.12-.18-.15a.29.29,0,0,1,.18-.19,1.21,1.21,0,0,1,.38,0h4.8a10.86,10.86,0,0,1,.1-1.28,3.92,3.92,0,0,1,3.95-3h1.76V37.43c0-.35.12-.36.4-.35h.88a.3.3,0,0,0,.37-.23.06.06,0,0,0,0,0,2.68,2.68,0,0,1,2.71-2,2.68,2.68,0,0,1,2.76,2,.34.34,0,0,0,.38.3h.75c.38,0,.56.08.53.45s0,.63,0,1h3v-1a12.67,12.67,0,0,1,.1-2.13A3.42,3.42,0,0,1,37,32.71a19.68,19.68,0,0,1,2.66,0,3.76,3.76,0,0,1,2.53,1.2.92.92,0,0,0,.52.21H44c0-.06.07-.08.07-.1a20.12,20.12,0,0,0-.27-5.31,7.45,7.45,0,0,0-2.59-3.87c-1.38-1.1-2.82-2.14-4.23-3.21ZM17,40.61H38.22c.22,0,.6-.12.61.19s-.4.22-.62.22H17.43a1.21,1.21,0,0,0-.38,0c-.13.06-.34.16-.35.26-.08.46-.11.94-.16,1.44H48.3c.34-2.46-1.72-3.89-3.85-3.87H20A3.75,3.75,0,0,0,17,40.61ZM29.7,24.43l1.56,1.38,8.36-7.4-3.35-3L27.9,22.8l1.49,1.32.3-.25,3.5-3.09c.14-.12.29-.34.51-.14s0,.33-.17.45l-3,2.68c-.34.23-.63.47-.87.66ZM44.62,37h1.32a1.29,1.29,0,0,0,1.44-1.12.66.66,0,0,0,0-.14V30.36A9.85,9.85,0,0,0,43.77,23c-1.41-1.21-3-2.29-4.46-3.42h0l-1,.75.3.26c.74.56,1.49,1.11,2.22,1.68a10.41,10.41,0,0,1,4.34,8.13c0,1.69,0,3.39,0,5.08A1.85,1.85,0,0,1,44.62,37Zm-2.87-2.9a3,3,0,0,0-1.85-.93,19,19,0,0,0-2.61,0A2.93,2.93,0,0,0,34.23,36v2.16c0,.31.1.43.47.42h7.45c.13,0,.34-.1.36-.19.18-.64,0-.81-.7-.8H38.1a1.68,1.68,0,0,1-1.63-1.73v-.05a1.78,1.78,0,0,1,1.82-1.56h1.37ZM25.39,23.83,30.06,28l1.32-1.17L26.71,22.7Zm3.08,13.11a2.11,2.11,0,0,0-2.39-1.71c-1,0-2.07,1-2,1.71ZM41.11,15.48l-1.53-1.37L37.66,15.8l1.52,1.37Z"/><path d="M19.2,33.81h4.9a1.16,1.16,0,0,1,.4.2c-.13.06-.26.17-.39.17H13.24a.91.91,0,0,1-.33,0,2.31,2.31,0,0,1-.35-.18c.11-.07.22-.18.34-.19h2.83c-.05-.08-.07-.13-.1-.15a2.62,2.62,0,0,1-1.15-2.34V20.9c0-.33,0-.54-.48-.66a1.44,1.44,0,0,1-1-1.61,1.64,1.64,0,0,1,1.64-1.28h5.71A1.6,1.6,0,0,1,22,18.64a1.47,1.47,0,0,1-1.21,1.66c-.31.08-.31.23-.31.43V30.89a3,3,0,0,1-1.28,2.84ZM15,21.35v.18a2.9,2.9,0,0,0,.41.06h1.12c.17,0,.32.16.48.24a1.54,1.54,0,0,1-.48.24h-1a3.59,3.59,0,0,0-.47.12,3.88,3.88,0,0,0,.45.14h.37a1.54,1.54,0,0,1,.29.21c-.09.08-.17.21-.27.23a5.61,5.61,0,0,1-.58,0A.9.9,0,0,0,15,23c.09.05.18.14.27.14h1.29c.15,0,.28.16.42.24a1.07,1.07,0,0,1-.41.21H15.28c-.1,0-.29.1-.29.17,0,.27,0,.55,0,.82a6.3,6.3,0,0,1,1.41-.34,6.29,6.29,0,0,1,1.48.31c.51.14,1,.32,1.53.43.35.08.52,0,.51-.41v-4.2c0-.26.08-.39.41-.43a1.14,1.14,0,0,0,1.14-1.16h0a1.22,1.22,0,0,0-1.33-1H14.69a1.17,1.17,0,0,0-1.25,1,1.14,1.14,0,0,0,1.15,1.13h0a2.94,2.94,0,0,0,.42,0h3.45c.2,0,.48-.05.46.22,0,.09-.3.19-.48.21a6.31,6.31,0,0,1-.87,0H15.29c-.1,0-.19.14-.29.22.1.06.18.16.29.19a2.25,2.25,0,0,0,.45,0,1.6,1.6,0,0,1,.4.23,1.25,1.25,0,0,1-.41.22A4.5,4.5,0,0,1,15,21.35Zm4.86,4.28c-.72-.19-1.35-.34-2-.54a.44.44,0,0,0-.56.15,1.55,1.55,0,0,0-.11,1.28,1.16,1.16,0,0,1,1.61-.31.87.87,0,0,1,.29,1.2.94.94,0,0,1-.09.12c-.47.49-1.08.45-1.85-.16.05.52-.13,1,.25,1.48a.63.63,0,0,1,0,.65c-.37.46-.2,1-.25,1.47.69-.59,1.31-.66,1.79-.21a.81.81,0,0,1,.14,1.14.93.93,0,0,1-.14.14,1.14,1.14,0,0,1-.77.26,3.61,3.61,0,0,1-1-.4,2.26,2.26,0,0,0,.92,1.51.48.48,0,0,0,.6,0,2.17,2.17,0,0,0,1.17-1.93V25.63ZM18.74,27c-.09-.34-.23-.5-.53-.5a.43.43,0,0,0-.48.38v0a.43.43,0,0,0,.45.43h0A2.59,2.59,0,0,0,18.74,27Zm0,4.46v-.17a2.32,2.32,0,0,0-.53-.35.44.44,0,0,0-.49.37v.05a.4.4,0,0,0,.38.42h.09a1.68,1.68,0,0,0,.55-.28Zm-1.63-2.33c-.24-.13-.39-.29-.51-.26a.49.49,0,0,0-.32.31c0,.09.22.28.32.28a1.54,1.54,0,0,0,.51-.3Z"/><path d="M30.67,44.4H45.36c.21,0,.57-.11.57.18s-.36.19-.57.19H16c-.2,0-.57.12-.57-.18s.36-.19.57-.19Z"/><path d="M17.24,9.59a1.33,1.33,0,0,1,1.43,1.22v0a1.32,1.32,0,0,1-1.38,1.26h0a1.31,1.31,0,0,1-1.43-1.18v-.06a1.31,1.31,0,0,1,1.36-1.26Zm.92,1.27a.92.92,0,1,0-1,.78h.1a.85.85,0,0,0,.94-.75Z"/><path d="M14.49,15.37a1.26,1.26,0,1,1,1.41,1.09h-.16A1.18,1.18,0,0,1,14.49,15.37Zm.51,0a.69.69,0,0,0,.71.67h0a.67.67,0,1,0,0-1.34h0a.7.7,0,0,0-.72.65Z"/><path d="M19.66,13.66a1.1,1.1,0,0,1-2.19,0,1,1,0,0,1,1-1h.11A1.06,1.06,0,0,1,19.66,13.66Zm-1.08-.52a.56.56,0,0,0-.59.51.54.54,0,0,0,.54.54h0a.53.53,0,1,0,0-1Z"/><path d="M12.39,44.78H11c-.11,0-.22-.12-.33-.18.11-.06.21-.18.31-.18h2.79c.1,0,.2.11.3.18-.11.06-.22.18-.33.18C13.31,44.8,12.85,44.78,12.39,44.78Z"/><path d="M48.93,44.78H47.56c-.11,0-.21-.12-.31-.19.1-.06.2-.17.31-.17h2.78c.1,0,.2.12.3.18-.1.07-.19.18-.29.18Z"/><path d="M27.28,33.82h1c.11,0,.21.11.31.17-.09.07-.19.19-.28.19H26.2c-.09,0-.18-.1-.27-.16.09-.07.18-.19.28-.19C26.56,33.8,26.92,33.82,27.28,33.82Z"/><path class="cls-1" d="M17,40.61a3.8,3.8,0,0,1,3-1.72H44.49c2.13,0,4.19,1.41,3.85,3.87H16.54c.05-.5.08-1,.16-1.44,0-.1.22-.2.35-.26a1.21,1.21,0,0,1,.38,0H38.21c.22,0,.62.15.62-.22s-.39-.19-.61-.19H17ZM42.64,41h1.42c.12,0,.23-.13.35-.21-.11-.06-.23-.19-.34-.19H41.28c-.12,0-.23.14-.35.22.13.06.25.18.38.18A11.8,11.8,0,0,0,42.64,41Z"/><path class="cls-1" d="M44.62,37a1.85,1.85,0,0,0,.56-1.51V30.41a10.41,10.41,0,0,0-4.34-8.13c-.73-.57-1.48-1.12-2.22-1.68l-.3-.26,1-.75h0c1.49,1.13,3,2.21,4.46,3.42a9.84,9.84,0,0,1,3.6,7.34c.07,1.79,0,3.59,0,5.38A1.3,1.3,0,0,1,46.08,37H44.62Z"/><path class="cls-1" d="M25.39,23.83l1.32-1.17,4.67,4.13L30.06,28Z"/><path class="cls-1" d="M28.47,36.94H24.1c-.09-.73,1-1.61,2-1.64C27.36,35.27,28.44,36,28.47,36.94Z"/><path class="cls-1" d="M18.74,27a2.59,2.59,0,0,1-.52.34.45.45,0,0,1-.49-.39v0a.43.43,0,0,1,.45-.41h0C18.51,26.53,18.65,26.69,18.74,27Z"/><path class="cls-2" d="M18.74,31.49a1.81,1.81,0,0,1-.54.31.39.39,0,0,1-.46-.32.28.28,0,0,1,0-.09.42.42,0,0,1,.44-.42h0a2.32,2.32,0,0,1,.53.35Z"/><path class="cls-1" d="M17.13,29.13c-.23.16-.36.32-.51.33a.37.37,0,0,1-.32-.28.49.49,0,0,1,.32-.31C16.74,28.84,16.89,29,17.13,29.13Z"/><path class="cls-3" d="M18.16,10.86a.84.84,0,0,1-.9.79h0a.81.81,0,1,1,.94-.79Z"/><path class="cls-2" d="M15,15.35a.71.71,0,0,1,.72-.67.72.72,0,0,1,.77.67h0a.71.71,0,0,1-.73.66A.69.69,0,0,1,15,15.4Z"/><path class="cls-2" d="M18.58,13.14a.53.53,0,1,1,0,1,.54.54,0,0,1-.55-.53h0A.56.56,0,0,1,18.58,13.14Z"/><path d="M42.64,41H41.31c-.13,0-.25-.12-.38-.18.12-.08.23-.21.35-.22h2.79c.11,0,.23.13.34.19-.12.08-.23.21-.35.21A13.45,13.45,0,0,1,42.64,41Z"/></svg>