<svg id="Layer_1" data-name="Layer 1" xmlns="http://www.w3.org/2000/svg" viewBox="0 0 60 53"><defs><style>.cls-1{fill:#3d8e81;}</style></defs><path d="M29.91,44a1.23,1.23,0,0,0-.12-1.23A4.74,4.74,0,0,0,27.86,41a.3.3,0,0,1-.18-.23A3.62,3.62,0,0,0,24,37.89a.54.54,0,0,1-.45-.19,5,5,0,0,0-3.16-1.49l-.19,0c.08-.27.15-.53.25-.78A8.06,8.06,0,0,1,22.1,33a.3.3,0,0,1,.21-.07A10.92,10.92,0,0,0,26,32.39a6.76,6.76,0,0,0,3.48-2.57,7.91,7.91,0,0,0,1.22-2.66c.07-.26-.06-.43-.35-.44A9.66,9.66,0,0,0,24.76,28a6.73,6.73,0,0,0-2.3,2.51,8.07,8.07,0,0,0-.75,1.8.58.58,0,0,1-.14.24L20.3,34.19a.22.22,0,0,1-.1.09v-.14c0-.68,0-1.36,0-2a.4.4,0,0,1,.12-.29,7.57,7.57,0,0,0,1.94-3.72,5.45,5.45,0,0,0-.63-3.57,8.63,8.63,0,0,0-1.17-1.73.37.37,0,0,1-.08-.22c0-.29,0-.57,0-.86,0-.12.05-.16.19-.16H50V40.71A3.49,3.49,0,0,1,46.21,44H29.91Zm5.45-13.55c0,.38,0,.76,0,1.15a.23.23,0,0,1-.1.16,2.18,2.18,0,0,0-1.21,1.81.24.24,0,0,1-.15.21c-.75.36-1.5.73-2.24,1.11a.28.28,0,0,1-.25,0,2.68,2.68,0,0,0-1.74-.23,2.27,2.27,0,0,0-2,2.44,2.47,2.47,0,0,0,2.57,1.94,2.4,2.4,0,0,0,2.46-2.13c0-.11,0-.16.15-.21l2.22-1.1a.32.32,0,0,1,.3,0,2.77,2.77,0,0,0,2.4,0,.28.28,0,0,1,.28,0l2.22,1.1a.22.22,0,0,1,.15.23,2,2,0,0,0,.7,1.42,2.8,2.8,0,0,0,2.78.52,2.25,2.25,0,0,0,1.57-2.11,2.55,2.55,0,0,0-3.75-1.87.25.25,0,0,1-.25,0L39.22,33.8a.2.2,0,0,1-.13-.19,2.14,2.14,0,0,0-1.18-1.79.25.25,0,0,1-.15-.25c0-.72,0-1.45,0-2.18a.27.27,0,0,1,.16-.26,2.08,2.08,0,0,0,1.16-2.05c-.12-1.6-2.22-2.55-3.78-1.72a2.07,2.07,0,0,0-.06,3.78.23.23,0,0,1,.13.21C35.36,29.73,35.36,30.1,35.36,30.48Zm-.47-7.43h-12a.32.32,0,1,0,0,.63H46.63c.58,0,.92.3.92.8V40.31a1.72,1.72,0,0,1-.06.44,1.79,1.79,0,0,1-1.84,1.17H31.16a.32.32,0,0,0-.3.29.31.31,0,0,0,.25.31.82.82,0,0,0,.22,0H45.66a2.4,2.4,0,0,0,2.61-2.29V24.5a1.48,1.48,0,0,0-1.65-1.45Z"/><path d="M50,18.53v2.4H20.41c0-.06,0-.11,0-.16V16.08A1.38,1.38,0,0,1,20.89,15l1.92-1.79a1.77,1.77,0,0,1,1.24-.47H34.78a1.75,1.75,0,0,1,1.18.41l3.58,3.1a.72.72,0,0,1,.27.56,2.9,2.9,0,0,0,0,.51,1.5,1.5,0,0,0,1.57,1.19H50ZM29.74,16.16H22.42a.32.32,0,0,0-.28.31.31.31,0,0,0,.29.3H36.84c.32,0,.49-.11.49-.31s-.17-.32-.5-.32Z"/><path d="M16.58,32.28l.49-.47a6,6,0,0,1,1.13.85A8.88,8.88,0,0,1,20,35.31a3.16,3.16,0,0,1,.24,1.35c0,.13.05.17.19.19a4.11,4.11,0,0,1,2.8,1.47.52.52,0,0,0,.49.2A2.94,2.94,0,0,1,27,41a.49.49,0,0,0,.31.42,4,4,0,0,1,1.94,1.86c.21.45,0,.76-.6.76H11.13c-.62,0-.93-.34-.64-.87a4.16,4.16,0,0,1,1.86-1.75.52.52,0,0,0,.34-.46A3,3,0,0,1,16,38.52a.56.56,0,0,0,.53-.21,4.24,4.24,0,0,1,2.8-1.47c.14,0,.17-.05.18-.17a3.59,3.59,0,0,0-.62-2,8.64,8.64,0,0,0-1.38-1.76,5.42,5.42,0,0,0-.67-.48Zm3.27,7.91a2.11,2.11,0,0,0,1.22-.39,1.63,1.63,0,0,0,.73-1.3.36.36,0,0,0-.71,0s0,0,0,.06a1.26,1.26,0,0,1-2.48,0,.35.35,0,0,0-.37-.35.34.34,0,0,0-.34.38A1.87,1.87,0,0,0,19.85,40.19Zm0,1.22a1.65,1.65,0,0,0-1.74,1.45.33.33,0,0,0,.33.37.34.34,0,0,0,.39-.33,1,1,0,0,1,2,0,.35.35,0,0,0,.39.33.33.33,0,0,0,.33-.36A1.65,1.65,0,0,0,19.85,41.41Zm4.87,1.73a1.9,1.9,0,0,0,1.12-.37c.2-.16.24-.35.09-.49s-.34-.14-.55,0a1,1,0,0,1-.72.22.94.94,0,0,1-.85-.53.76.76,0,0,1,.2-.92.28.28,0,0,0,0-.46.38.38,0,0,0-.53,0,1.32,1.32,0,0,0-.32,1.59A1.7,1.7,0,0,0,24.72,43.14Zm-9.77,0a1.73,1.73,0,0,0,1.58-.91,1.35,1.35,0,0,0-.33-1.59.4.4,0,0,0-.53,0,.29.29,0,0,0,0,.46.8.8,0,0,1,0,1.22,1.1,1.1,0,0,1-1.37,0,.39.39,0,0,0-.52,0,.29.29,0,0,0,.05.47A1.86,1.86,0,0,0,15,43.14Z"/><path d="M50,17.9H48.31l0,0a1.33,1.33,0,0,0-.56-1.06c-1.5-1.31-3-2.64-4.49-4l-2.46-2.17a1.45,1.45,0,0,0-1-.36h-.24a1.75,1.75,0,0,0-1.48.54,1.2,1.2,0,0,0-.4.87v2l-.6-.52-1-.82a.22.22,0,0,1-.06-.13q0-.68,0-1.35a.84.84,0,0,1,.31-.63l1.39-1.22a1.13,1.13,0,0,1,.78-.28h2a1.39,1.39,0,0,1,1,.36l5.19,4.58,3,2.6a.91.91,0,0,1,.35.74Z"/><path class="cls-1" d="M23.14,32.25l1.11-.73,1.46-1c.13-.08.22-.19.16-.32a.51.51,0,0,0-.24-.24c-.14-.07-.27,0-.39.09l-2.41,1.59-.14.09a6.8,6.8,0,0,1,2.15-3,8.57,8.57,0,0,1,5-1.41,7.21,7.21,0,0,1-2.12,3.32,7.8,7.8,0,0,1-4.6,1.62Z"/><path class="cls-1" d="M20.2,30.82V28a.65.65,0,0,0,0-.2.36.36,0,0,0-.67.07,1,1,0,0,0,0,.17v2.61a1.28,1.28,0,0,1,0,.18l-.08-.09a6.43,6.43,0,0,1-1.31-3.16,4.66,4.66,0,0,1,.46-2.43,15.61,15.61,0,0,1,.89-1.53.48.48,0,0,1,.8,0,6.58,6.58,0,0,1,1.33,2.92,4.9,4.9,0,0,1-.45,2.84,7.56,7.56,0,0,1-.87,1.44Z"/><path class="cls-1" d="M17,31.79l-1.62-1.07-1-.65a.39.39,0,0,0-.55,0c-.13.14-.08.33.13.47l2.4,1.59.16.11s-.06,0-.08,0a8.58,8.58,0,0,1-3.64-1,5.93,5.93,0,0,1-2.25-2.22,10.32,10.32,0,0,1-.53-1c-.16-.34.12-.67.54-.62a10.62,10.62,0,0,1,3.4.85,5.42,5.42,0,0,1,2,1.66,7.52,7.52,0,0,1,1,1.76S17,31.73,17,31.79Z"/><path d="M31,10.27h.84a.54.54,0,0,1,.55.48c0,.47,0,.93,0,1.4H24V10.8a.55.55,0,0,1,.54-.53h.84v.41c0,.16,0,.32,0,.48a.33.33,0,0,0,.36.28.34.34,0,0,0,.35-.3v-.86h1.74c0,.16,0,.32,0,.49s0,.24,0,.36a.36.36,0,0,0,.71,0v-.69s0-.11,0-.17H30.3v.49c0,.13,0,.26,0,.38a.34.34,0,0,0,.37.3.33.33,0,0,0,.34-.32c0-.22,0-.45,0-.67Z"/><path class="cls-1" d="M34.76,33.68a1.83,1.83,0,1,1,1.8,1.6A1.72,1.72,0,0,1,34.76,33.68Z"/><path class="cls-1" d="M43,38.44a1.71,1.71,0,0,1-1.81-1.6A1.83,1.83,0,1,1,43,38.44Z"/><path class="cls-1" d="M30.18,38.44a1.6,1.6,0,1,1,0-3.18,1.6,1.6,0,1,1,0,3.18Z"/><path class="cls-1" d="M36.57,28.85a1.6,1.6,0,1,1,1.81-1.58A1.71,1.71,0,0,1,36.57,28.85Z"/><path d="M41,35.4l-.48.74-2-1L39,34.4Z"/><path d="M36.1,29.46H37v2H36.1Z"/><path d="M32.13,35.4l2-1,.47.74-2,1Z"/></svg>